REM DIRINDEX 1\2\4,1\2\5,1\3\6,1\3\7,1\3\8
REM DIRNAME cjc094,folder01,folder02,folder03,folder04,folder05,folder06,folder07
TITLE ""
FILE "LV2_021_WORDS.mp3" MP3
  TRACK 01 AUDIO
    TITLE "0:"
    INDEX 01 00:00:00
  TRACK 02 AUDIO
    TITLE "6:cjc094_0778"
    INDEX 01 00:00:01
  TRACK 03 AUDIO
    TITLE "0:"
    INDEX 01 00:01:32
  TRACK 04 AUDIO
    TITLE "6:cjc094_0779"
    INDEX 01 00:02:06
  TRACK 05 AUDIO
    TITLE "0:"
    INDEX 01 00:04:23
  TRACK 06 AUDIO
    TITLE "7:cjc094_0780"
    INDEX 01 00:04:74
  TRACK 07 AUDIO
    TITLE "0:"
    INDEX 01 00:06:04
  TRACK 08 AUDIO
    TITLE "8:cjc094_0781"
    INDEX 01 00:06:16
  TRACK 09 AUDIO
    TITLE "0:"
    INDEX 01 00:07:15
  TRACK 10 AUDIO
    TITLE "7:cjc094_0782"
    INDEX 01 00:07:64
  TRACK 11 AUDIO
    TITLE "0:"
    INDEX 01 00:08:68
  TRACK 12 AUDIO
    TITLE "8:cjc094_0783"
    INDEX 01 00:09:02
  TRACK 13 AUDIO
    TITLE "0:"
    INDEX 01 00:10:59
  TRACK 14 AUDIO
    TITLE "7:cjc094_0784"
    INDEX 01 00:11:29
  TRACK 15 AUDIO
    TITLE "0:"
    INDEX 01 00:12:30
  TRACK 16 AUDIO
    TITLE "8:cjc094_0785"
    INDEX 01 00:12:48
  TRACK 17 AUDIO
    TITLE "0:"
    INDEX 01 00:13:41
  TRACK 18 AUDIO
    TITLE "7:cjc094_0786"
    INDEX 01 00:14:13
  TRACK 19 AUDIO
    TITLE "0:"
    INDEX 01 00:15:19
  TRACK 20 AUDIO
    TITLE "8:cjc094_0787"
    INDEX 01 00:15:38
  TRACK 21 AUDIO
    TITLE "0:"
    INDEX 01 00:17:08
  TRACK 22 AUDIO
    TITLE "7:cjc094_0788"
    INDEX 01 00:17:55
  TRACK 23 AUDIO
    TITLE "0:"
    INDEX 01 00:18:60
  TRACK 24 AUDIO
    TITLE "8:cjc094_0789"
    INDEX 01 00:19:03
  TRACK 25 AUDIO
    TITLE "0:"
    INDEX 01 00:21:66
  TRACK 26 AUDIO
    TITLE "7:cjc094_0790"
    INDEX 01 00:22:42
  TRACK 27 AUDIO
    TITLE "0:"
    INDEX 01 00:23:48
  TRACK 28 AUDIO
    TITLE "8:cjc094_0791"
    INDEX 01 00:23:61
  TRACK 29 AUDIO
    TITLE "0:"
    INDEX 01 00:26:01
  TRACK 30 AUDIO
    TITLE "7:cjc094_0792"
    INDEX 01 00:26:52
  TRACK 31 AUDIO
    TITLE "0:"
    INDEX 01 00:27:51
  TRACK 32 AUDIO
    TITLE "8:cjc094_0793"
    INDEX 01 00:27:73
  TRACK 33 AUDIO
    TITLE "0:"
    INDEX 01 00:29:01
  TRACK 34 AUDIO
    TITLE "7:cjc094_0794"
    INDEX 01 00:29:52
  TRACK 35 AUDIO
    TITLE "0:"
    INDEX 01 00:30:59
  TRACK 36 AUDIO
    TITLE "8:cjc094_0795"
    INDEX 01 00:30:73
  TRACK 37 AUDIO
    TITLE "0:"
    INDEX 01 00:32:60
  TRACK 38 AUDIO
    TITLE "7:cjc094_0796"
    INDEX 01 00:33:32
  TRACK 39 AUDIO
    TITLE "0:"
    INDEX 01 00:34:42
  TRACK 40 AUDIO
    TITLE "8:cjc094_0797"
    INDEX 01 00:34:59
  TRACK 41 AUDIO
    TITLE "0:"
    INDEX 01 00:37:24
  TRACK 42 AUDIO
    TITLE "7:cjc094_0798"
    INDEX 01 00:37:69
  TRACK 43 AUDIO
    TITLE "0:"
    INDEX 01 00:39:05
  TRACK 44 AUDIO
    TITLE "8:cjc094_0799"
    INDEX 01 00:39:15
  TRACK 45 AUDIO
    TITLE "0:"
    INDEX 01 00:40:21
  TRACK 46 AUDIO
    TITLE "7:cjc094_0800"
    INDEX 01 00:40:72
  TRACK 47 AUDIO
    TITLE "0:"
    INDEX 01 00:41:73
  TRACK 48 AUDIO
    TITLE "8:cjc094_0801"
    INDEX 01 00:42:23
  TRACK 49 AUDIO
    TITLE "0:"
    INDEX 01 00:43:09
  TRACK 50 AUDIO
    TITLE "7:cjc094_0802"
    INDEX 01 00:43:54
  TRACK 51 AUDIO
    TITLE "0:"
    INDEX 01 00:44:46
  TRACK 52 AUDIO
    TITLE "8:cjc094_0803"
    INDEX 01 00:44:65
  TRACK 53 AUDIO
    TITLE "0:"
    INDEX 01 00:45:65
  TRACK 54 AUDIO
    TITLE "7:cjc094_0804"
    INDEX 01 00:46:35
  TRACK 55 AUDIO
    TITLE "0:"
    INDEX 01 00:47:44
  TRACK 56 AUDIO
    TITLE "8:cjc094_0805"
    INDEX 01 00:47:62
  TRACK 57 AUDIO
    TITLE "0:"
    INDEX 01 00:48:69
  TRACK 58 AUDIO
    TITLE "7:cjc094_0806"
    INDEX 01 00:49:41
  TRACK 59 AUDIO
    TITLE "0:"
    INDEX 01 00:50:39
  TRACK 60 AUDIO
    TITLE "8:cjc094_0807"
    INDEX 01 00:50:54
  TRACK 61 AUDIO
    TITLE "0:"
    INDEX 01 00:51:58
  TRACK 62 AUDIO
    TITLE "7:cjc094_0808"
    INDEX 01 00:52:30
  TRACK 63 AUDIO
    TITLE "0:"
    INDEX 01 00:53:33
  TRACK 64 AUDIO
    TITLE "8:cjc094_0809"
    INDEX 01 00:53:47
  TRACK 65 AUDIO
    TITLE "0:"
    INDEX 01 00:54:58
  TRACK 66 AUDIO
    TITLE "7:cjc094_0810"
    INDEX 01 00:55:30
  TRACK 67 AUDIO
    TITLE "0:"
    INDEX 01 00:56:24
  TRACK 68 AUDIO
    TITLE "8:cjc094_0811"
    INDEX 01 00:56:37
  TRACK 69 AUDIO
    TITLE "0:"
    INDEX 01 01:00:49
  TRACK 70 AUDIO
    TITLE "7:cjc094_0812"
    INDEX 01 01:01:21
  TRACK 71 AUDIO
    TITLE "0:"
    INDEX 01 01:02:48
  TRACK 72 AUDIO
    TITLE "8:cjc094_0813"
    INDEX 01 01:02:59
  TRACK 73 AUDIO
    TITLE "0:"
    INDEX 01 01:03:71
  TRACK 74 AUDIO
    TITLE "7:cjc094_0814"
    INDEX 01 01:04:48
  TRACK 75 AUDIO
    TITLE "0:"
    INDEX 01 01:05:56
  TRACK 76 AUDIO
    TITLE "8:cjc094_0815"
    INDEX 01 01:05:69
  TRACK 77 AUDIO
    TITLE "0:"
    INDEX 01 01:08:23
  TRACK 78 AUDIO
    TITLE "7:cjc094_0816"
    INDEX 01 01:08:74
  TRACK 79 AUDIO
    TITLE "0:"
    INDEX 01 01:10:00
  TRACK 80 AUDIO
    TITLE "8:cjc094_0817"
    INDEX 01 01:10:18
  TRACK 81 AUDIO
    TITLE "0:"
    INDEX 01 01:11:47
